<mxfile host="app.diagrams.net" modified="2022-04-03T07:43:59.241Z" agent="5.0 (Windows NT 10.0; Win64; x64) AppleWebKit/537.36 (KHTML, like Gecko) Chrome/100.0.4896.60 Safari/537.36" etag="NA_Aop46j0RqvUTQLbtC" version="15.9.6" type="github">
  <diagram id="C5RBs43oDa-KdzZeNtuy" name="Page-1">
    <mxGraphModel dx="2348" dy="2337" grid="0" gridSize="10" guides="1" tooltips="1" connect="1" arrows="1" fold="1" page="1" pageScale="1" pageWidth="827" pageHeight="1169" math="0" shadow="0">
      <root>
        <mxCell id="WIyWlLk6GJQsqaUBKTNV-0" />
        <mxCell id="WIyWlLk6GJQsqaUBKTNV-1" parent="WIyWlLk6GJQsqaUBKTNV-0" />
        <mxCell id="rnE-SV04y7jaSoK68JLr-97" value="" style="shape=ext;double=1;rounded=0;whiteSpace=wrap;html=1;fontFamily=Helvetica;fontSize=15;strokeColor=#000000;" parent="WIyWlLk6GJQsqaUBKTNV-1" vertex="1">
          <mxGeometry x="160" y="-1110" width="380" height="630" as="geometry" />
        </mxCell>
        <mxCell id="rnE-SV04y7jaSoK68JLr-4" value="" style="edgeStyle=orthogonalEdgeStyle;rounded=0;orthogonalLoop=1;jettySize=auto;html=1;fontSize=22;strokeWidth=2;" parent="WIyWlLk6GJQsqaUBKTNV-1" source="rnE-SV04y7jaSoK68JLr-0" edge="1">
          <mxGeometry relative="1" as="geometry">
            <mxPoint x="364" y="201" as="targetPoint" />
            <Array as="points" />
          </mxGeometry>
        </mxCell>
        <mxCell id="rnE-SV04y7jaSoK68JLr-0" value="" style="ellipse;html=1;shape=endState;fillColor=#000000;strokeColor=none;" parent="WIyWlLk6GJQsqaUBKTNV-1" vertex="1">
          <mxGeometry x="329" y="60" width="70" height="70" as="geometry" />
        </mxCell>
        <mxCell id="rnE-SV04y7jaSoK68JLr-6" value="" style="edgeStyle=orthogonalEdgeStyle;rounded=0;orthogonalLoop=1;jettySize=auto;html=1;fontFamily=Comic Sans MS;fontSize=17;strokeWidth=2;" parent="WIyWlLk6GJQsqaUBKTNV-1" edge="1">
          <mxGeometry relative="1" as="geometry">
            <mxPoint x="299" y="241" as="sourcePoint" />
            <mxPoint x="160" y="350" as="targetPoint" />
          </mxGeometry>
        </mxCell>
        <mxCell id="rnE-SV04y7jaSoK68JLr-11" value="Multimode" style="edgeLabel;html=1;align=center;verticalAlign=middle;resizable=0;points=[];fontSize=20;fontFamily=Helvetica;fontStyle=1" parent="rnE-SV04y7jaSoK68JLr-6" vertex="1" connectable="0">
          <mxGeometry x="-0.6953" y="1" relative="1" as="geometry">
            <mxPoint x="-47" y="-22" as="offset" />
          </mxGeometry>
        </mxCell>
        <mxCell id="rnE-SV04y7jaSoK68JLr-8" value="" style="edgeStyle=orthogonalEdgeStyle;rounded=0;orthogonalLoop=1;jettySize=auto;html=1;fontFamily=Comic Sans MS;fontSize=17;strokeWidth=2;" parent="WIyWlLk6GJQsqaUBKTNV-1" target="rnE-SV04y7jaSoK68JLr-7" edge="1">
          <mxGeometry relative="1" as="geometry">
            <mxPoint x="429" y="241" as="sourcePoint" />
          </mxGeometry>
        </mxCell>
        <mxCell id="rnE-SV04y7jaSoK68JLr-2" style="edgeStyle=orthogonalEdgeStyle;rounded=0;orthogonalLoop=1;jettySize=auto;html=1;exitX=0.5;exitY=1;exitDx=0;exitDy=0;" parent="WIyWlLk6GJQsqaUBKTNV-1" source="rnE-SV04y7jaSoK68JLr-0" target="rnE-SV04y7jaSoK68JLr-0" edge="1">
          <mxGeometry relative="1" as="geometry" />
        </mxCell>
        <mxCell id="rnE-SV04y7jaSoK68JLr-3" value="학습자" style="text;strokeColor=none;fillColor=none;html=1;fontSize=22;fontStyle=1;verticalAlign=middle;align=center;" parent="WIyWlLk6GJQsqaUBKTNV-1" vertex="1">
          <mxGeometry x="314" y="20" width="100" height="40" as="geometry" />
        </mxCell>
        <mxCell id="rnE-SV04y7jaSoK68JLr-7" value="학습 진행" style="rounded=1;whiteSpace=wrap;html=1;fontFamily=Comic Sans MS;strokeColor=#000000;fontSize=17;fontStyle=1" parent="WIyWlLk6GJQsqaUBKTNV-1" vertex="1">
          <mxGeometry x="510" y="351" width="120" height="60" as="geometry" />
        </mxCell>
        <mxCell id="rnE-SV04y7jaSoK68JLr-9" value="&lt;span style=&quot;font-size: 17px&quot;&gt;&lt;b&gt;탐방&lt;/b&gt;&lt;/span&gt;" style="rounded=1;whiteSpace=wrap;html=1;fontFamily=Comic Sans MS;strokeColor=#000000;" parent="WIyWlLk6GJQsqaUBKTNV-1" vertex="1">
          <mxGeometry x="100" y="351" width="120" height="60" as="geometry" />
        </mxCell>
        <mxCell id="rnE-SV04y7jaSoK68JLr-12" value="Singlemode" style="edgeLabel;html=1;align=center;verticalAlign=middle;resizable=0;points=[];fontSize=20;fontFamily=Helvetica;fontStyle=1" parent="WIyWlLk6GJQsqaUBKTNV-1" vertex="1" connectable="0">
          <mxGeometry x="500.00222222222226" y="220" as="geometry" />
        </mxCell>
        <mxCell id="rnE-SV04y7jaSoK68JLr-13" value="" style="ellipse;html=1;shape=endState;fillColor=#000000;strokeColor=default;fontFamily=Helvetica;fontSize=20;" parent="WIyWlLk6GJQsqaUBKTNV-1" vertex="1">
          <mxGeometry x="123" y="479" width="70" height="70" as="geometry" />
        </mxCell>
        <mxCell id="rnE-SV04y7jaSoK68JLr-15" value="" style="endArrow=classic;html=1;rounded=0;fontFamily=Helvetica;fontSize=20;strokeWidth=2;exitX=0.5;exitY=1;exitDx=0;exitDy=0;" parent="WIyWlLk6GJQsqaUBKTNV-1" source="rnE-SV04y7jaSoK68JLr-9" edge="1">
          <mxGeometry width="50" height="50" relative="1" as="geometry">
            <mxPoint x="160" y="420" as="sourcePoint" />
            <mxPoint x="160" y="470" as="targetPoint" />
          </mxGeometry>
        </mxCell>
        <mxCell id="rnE-SV04y7jaSoK68JLr-21" value="" style="edgeStyle=orthogonalEdgeStyle;rounded=0;orthogonalLoop=1;jettySize=auto;html=1;fontFamily=Helvetica;fontSize=20;strokeWidth=2;" parent="WIyWlLk6GJQsqaUBKTNV-1" edge="1">
          <mxGeometry relative="1" as="geometry">
            <mxPoint x="570" y="413" as="sourcePoint" />
            <mxPoint x="570" y="474" as="targetPoint" />
          </mxGeometry>
        </mxCell>
        <mxCell id="rnE-SV04y7jaSoK68JLr-24" value="" style="edgeStyle=orthogonalEdgeStyle;rounded=0;orthogonalLoop=1;jettySize=auto;html=1;fontFamily=Helvetica;fontSize=17;strokeWidth=2;" parent="WIyWlLk6GJQsqaUBKTNV-1" source="rnE-SV04y7jaSoK68JLr-22" target="rnE-SV04y7jaSoK68JLr-23" edge="1">
          <mxGeometry relative="1" as="geometry" />
        </mxCell>
        <mxCell id="rnE-SV04y7jaSoK68JLr-29" value="정답" style="edgeLabel;html=1;align=left;verticalAlign=middle;resizable=0;points=[];fontSize=20;fontFamily=Helvetica;fontStyle=1" parent="rnE-SV04y7jaSoK68JLr-24" vertex="1" connectable="0">
          <mxGeometry x="-0.3255" y="5" relative="1" as="geometry">
            <mxPoint y="-24" as="offset" />
          </mxGeometry>
        </mxCell>
        <mxCell id="rnE-SV04y7jaSoK68JLr-28" value="" style="edgeStyle=orthogonalEdgeStyle;rounded=0;orthogonalLoop=1;jettySize=auto;html=1;fontFamily=Helvetica;fontSize=17;strokeWidth=2;" parent="WIyWlLk6GJQsqaUBKTNV-1" source="rnE-SV04y7jaSoK68JLr-22" target="rnE-SV04y7jaSoK68JLr-27" edge="1">
          <mxGeometry relative="1" as="geometry" />
        </mxCell>
        <mxCell id="rnE-SV04y7jaSoK68JLr-31" value="오답" style="edgeLabel;html=1;align=center;verticalAlign=middle;resizable=0;points=[];fontSize=20;fontFamily=Helvetica;fontStyle=1" parent="rnE-SV04y7jaSoK68JLr-28" vertex="1" connectable="0">
          <mxGeometry x="-0.3099" y="1" relative="1" as="geometry">
            <mxPoint x="-22" y="-18" as="offset" />
          </mxGeometry>
        </mxCell>
        <mxCell id="rnE-SV04y7jaSoK68JLr-22" value="&lt;font style=&quot;font-size: 17px&quot;&gt;&lt;b&gt;문제 해결&lt;/b&gt;&lt;/font&gt;" style="rhombus;whiteSpace=wrap;html=1;fontFamily=Helvetica;fontSize=20;strokeColor=default;" parent="WIyWlLk6GJQsqaUBKTNV-1" vertex="1">
          <mxGeometry x="500" y="479" width="140" height="80" as="geometry" />
        </mxCell>
        <mxCell id="rnE-SV04y7jaSoK68JLr-33" style="edgeStyle=orthogonalEdgeStyle;rounded=0;orthogonalLoop=1;jettySize=auto;html=1;entryX=0;entryY=0.5;entryDx=0;entryDy=0;fontFamily=Helvetica;fontSize=17;strokeWidth=2;" parent="WIyWlLk6GJQsqaUBKTNV-1" source="rnE-SV04y7jaSoK68JLr-23" target="rnE-SV04y7jaSoK68JLr-32" edge="1">
          <mxGeometry relative="1" as="geometry">
            <Array as="points">
              <mxPoint x="430" y="760" />
            </Array>
          </mxGeometry>
        </mxCell>
        <mxCell id="rnE-SV04y7jaSoK68JLr-23" value="&lt;font style=&quot;font-size: 17px&quot;&gt;&lt;b&gt;포인트 획득&lt;/b&gt;&lt;/font&gt;" style="rounded=1;whiteSpace=wrap;html=1;fontSize=20;" parent="WIyWlLk6GJQsqaUBKTNV-1" vertex="1">
          <mxGeometry x="370" y="620" width="120" height="60" as="geometry" />
        </mxCell>
        <mxCell id="rnE-SV04y7jaSoK68JLr-34" style="edgeStyle=orthogonalEdgeStyle;rounded=0;orthogonalLoop=1;jettySize=auto;html=1;entryX=1;entryY=0.5;entryDx=0;entryDy=0;fontFamily=Helvetica;fontSize=17;strokeWidth=2;" parent="WIyWlLk6GJQsqaUBKTNV-1" source="rnE-SV04y7jaSoK68JLr-27" target="rnE-SV04y7jaSoK68JLr-32" edge="1">
          <mxGeometry relative="1" as="geometry">
            <Array as="points">
              <mxPoint x="710" y="760" />
            </Array>
          </mxGeometry>
        </mxCell>
        <mxCell id="rnE-SV04y7jaSoK68JLr-27" value="&lt;font style=&quot;font-size: 17px&quot;&gt;&lt;b&gt;피드백&lt;/b&gt;&lt;/font&gt;" style="rounded=1;whiteSpace=wrap;html=1;fontSize=20;" parent="WIyWlLk6GJQsqaUBKTNV-1" vertex="1">
          <mxGeometry x="650" y="620" width="120" height="60" as="geometry" />
        </mxCell>
        <mxCell id="rnE-SV04y7jaSoK68JLr-47" value="" style="edgeStyle=orthogonalEdgeStyle;rounded=0;orthogonalLoop=1;jettySize=auto;html=1;fontFamily=Helvetica;fontSize=17;strokeWidth=2;" parent="WIyWlLk6GJQsqaUBKTNV-1" source="rnE-SV04y7jaSoK68JLr-32" edge="1">
          <mxGeometry relative="1" as="geometry">
            <mxPoint x="570" y="860" as="targetPoint" />
          </mxGeometry>
        </mxCell>
        <mxCell id="rnE-SV04y7jaSoK68JLr-32" value="" style="rhombus;whiteSpace=wrap;html=1;fontFamily=Helvetica;fontSize=17;strokeColor=default;" parent="WIyWlLk6GJQsqaUBKTNV-1" vertex="1">
          <mxGeometry x="530" y="720" width="80" height="80" as="geometry" />
        </mxCell>
        <mxCell id="rnE-SV04y7jaSoK68JLr-37" value="" style="ellipse;html=1;shape=endState;fillColor=#000000;strokeColor=#000000;fontFamily=Helvetica;fontSize=17;" parent="WIyWlLk6GJQsqaUBKTNV-1" vertex="1">
          <mxGeometry x="704" y="1009" width="70" height="70" as="geometry" />
        </mxCell>
        <mxCell id="rnE-SV04y7jaSoK68JLr-50" style="edgeStyle=orthogonalEdgeStyle;rounded=0;orthogonalLoop=1;jettySize=auto;html=1;fontFamily=Helvetica;fontSize=17;strokeWidth=2;" parent="WIyWlLk6GJQsqaUBKTNV-1" source="rnE-SV04y7jaSoK68JLr-49" edge="1">
          <mxGeometry relative="1" as="geometry">
            <mxPoint x="300" y="580" as="targetPoint" />
            <Array as="points">
              <mxPoint x="300" y="910" />
              <mxPoint x="300" y="590" />
            </Array>
          </mxGeometry>
        </mxCell>
        <mxCell id="rnE-SV04y7jaSoK68JLr-55" style="edgeStyle=orthogonalEdgeStyle;rounded=0;orthogonalLoop=1;jettySize=auto;html=1;fontFamily=Helvetica;fontSize=17;strokeWidth=2;" parent="WIyWlLk6GJQsqaUBKTNV-1" source="rnE-SV04y7jaSoK68JLr-49" edge="1">
          <mxGeometry relative="1" as="geometry">
            <mxPoint x="740" y="1000" as="targetPoint" />
          </mxGeometry>
        </mxCell>
        <mxCell id="rnE-SV04y7jaSoK68JLr-49" value="학습 진행 확인" style="rhombus;whiteSpace=wrap;html=1;fontFamily=Helvetica;fontSize=17;strokeColor=#000000;fontStyle=1" parent="WIyWlLk6GJQsqaUBKTNV-1" vertex="1">
          <mxGeometry x="490" y="870" width="160" height="80" as="geometry" />
        </mxCell>
        <mxCell id="rnE-SV04y7jaSoK68JLr-53" style="edgeStyle=orthogonalEdgeStyle;rounded=0;orthogonalLoop=1;jettySize=auto;html=1;entryX=0;entryY=0.5;entryDx=0;entryDy=0;fontFamily=Helvetica;fontSize=17;strokeWidth=2;" parent="WIyWlLk6GJQsqaUBKTNV-1" source="rnE-SV04y7jaSoK68JLr-51" target="rnE-SV04y7jaSoK68JLr-7" edge="1">
          <mxGeometry relative="1" as="geometry">
            <Array as="points">
              <mxPoint x="301" y="381" />
            </Array>
          </mxGeometry>
        </mxCell>
        <mxCell id="rnE-SV04y7jaSoK68JLr-51" value="다음 장소 이동" style="rounded=1;whiteSpace=wrap;html=1;fontFamily=Helvetica;fontSize=17;strokeColor=#000000;fontStyle=1" parent="WIyWlLk6GJQsqaUBKTNV-1" vertex="1">
          <mxGeometry x="241" y="512" width="120" height="60" as="geometry" />
        </mxCell>
        <mxCell id="rnE-SV04y7jaSoK68JLr-54" value="다음 학습이 있다면" style="edgeLabel;html=1;align=left;verticalAlign=middle;resizable=0;points=[];fontSize=20;fontFamily=Helvetica;fontStyle=1" parent="WIyWlLk6GJQsqaUBKTNV-1" vertex="1" connectable="0">
          <mxGeometry x="314" y="889.9999999999998" as="geometry" />
        </mxCell>
        <mxCell id="rnE-SV04y7jaSoK68JLr-56" value="학습 종료" style="edgeLabel;html=1;align=left;verticalAlign=middle;resizable=0;points=[];fontSize=20;fontFamily=Helvetica;fontStyle=1" parent="WIyWlLk6GJQsqaUBKTNV-1" vertex="1" connectable="0">
          <mxGeometry x="650" y="889.9999999999998" as="geometry" />
        </mxCell>
        <mxCell id="rnE-SV04y7jaSoK68JLr-57" value="선택" style="rhombus;whiteSpace=wrap;html=1;fontFamily=Helvetica;fontSize=17;strokeColor=#000000;fontStyle=1" parent="WIyWlLk6GJQsqaUBKTNV-1" vertex="1">
          <mxGeometry x="299" y="201" width="130" height="80" as="geometry" />
        </mxCell>
        <mxCell id="rnE-SV04y7jaSoK68JLr-61" value="&lt;b&gt;시스템&lt;/b&gt;" style="shape=umlLifeline;perimeter=lifelinePerimeter;whiteSpace=wrap;html=1;container=1;collapsible=0;recursiveResize=0;outlineConnect=0;fontFamily=Helvetica;fontSize=17;strokeColor=#000000;size=50;" parent="WIyWlLk6GJQsqaUBKTNV-1" vertex="1">
          <mxGeometry x="1242" y="50" width="100" height="750" as="geometry" />
        </mxCell>
        <mxCell id="rnE-SV04y7jaSoK68JLr-65" value="" style="html=1;points=[];perimeter=orthogonalPerimeter;fontFamily=Helvetica;fontSize=17;strokeColor=#000000;" parent="rnE-SV04y7jaSoK68JLr-61" vertex="1">
          <mxGeometry x="45" y="67" width="10" height="663" as="geometry" />
        </mxCell>
        <mxCell id="rnE-SV04y7jaSoK68JLr-86" value="평가 답안 제출" style="html=1;verticalAlign=bottom;endArrow=block;rounded=0;fontFamily=Helvetica;fontSize=13;strokeWidth=1;fontStyle=1" parent="rnE-SV04y7jaSoK68JLr-61" edge="1">
          <mxGeometry width="80" relative="1" as="geometry">
            <mxPoint x="-268.0023809523807" y="474" as="sourcePoint" />
            <mxPoint x="45" y="474" as="targetPoint" />
            <Array as="points">
              <mxPoint x="-72.54999999999995" y="474" />
            </Array>
          </mxGeometry>
        </mxCell>
        <mxCell id="rnE-SV04y7jaSoK68JLr-87" value="평가 답안 불러오기" style="html=1;verticalAlign=bottom;endArrow=block;rounded=0;fontFamily=Helvetica;fontSize=13;strokeWidth=1;fontStyle=1" parent="rnE-SV04y7jaSoK68JLr-61" edge="1">
          <mxGeometry width="80" relative="1" as="geometry">
            <mxPoint x="55" y="500" as="sourcePoint" />
            <mxPoint x="248" y="500" as="targetPoint" />
            <Array as="points">
              <mxPoint x="130.45000000000005" y="500" />
            </Array>
          </mxGeometry>
        </mxCell>
        <mxCell id="rnE-SV04y7jaSoK68JLr-88" value="평가 답안 전송" style="html=1;verticalAlign=bottom;endArrow=open;dashed=1;endSize=8;rounded=0;fontFamily=Helvetica;fontSize=13;strokeWidth=1;fontStyle=1" parent="rnE-SV04y7jaSoK68JLr-61" edge="1">
          <mxGeometry relative="1" as="geometry">
            <mxPoint x="246" y="535" as="sourcePoint" />
            <mxPoint x="55" y="535" as="targetPoint" />
          </mxGeometry>
        </mxCell>
        <mxCell id="rnE-SV04y7jaSoK68JLr-63" value="" style="shape=umlLifeline;participant=umlActor;perimeter=lifelinePerimeter;whiteSpace=wrap;html=1;container=1;collapsible=0;recursiveResize=0;verticalAlign=top;spacingTop=36;outlineConnect=0;fontFamily=Helvetica;fontSize=17;strokeColor=#000000;size=60;" parent="WIyWlLk6GJQsqaUBKTNV-1" vertex="1">
          <mxGeometry x="954" y="50" width="30" height="750" as="geometry" />
        </mxCell>
        <mxCell id="rnE-SV04y7jaSoK68JLr-69" value="" style="html=1;points=[];perimeter=orthogonalPerimeter;fontFamily=Helvetica;fontSize=17;strokeColor=#000000;" parent="rnE-SV04y7jaSoK68JLr-63" vertex="1">
          <mxGeometry x="10" y="68" width="10" height="672" as="geometry" />
        </mxCell>
        <mxCell id="rnE-SV04y7jaSoK68JLr-64" value="학습자" style="text;strokeColor=none;fillColor=none;html=1;fontSize=17;fontStyle=1;verticalAlign=middle;align=center;" parent="WIyWlLk6GJQsqaUBKTNV-1" vertex="1">
          <mxGeometry x="921" y="16" width="100" height="40" as="geometry" />
        </mxCell>
        <mxCell id="rnE-SV04y7jaSoK68JLr-66" value="VR 헤드셋을 착용하여 시스템 접속" style="html=1;verticalAlign=bottom;endArrow=block;rounded=0;fontFamily=Helvetica;fontSize=13;strokeWidth=1;fontStyle=1;" parent="WIyWlLk6GJQsqaUBKTNV-1" edge="1">
          <mxGeometry width="80" relative="1" as="geometry">
            <mxPoint x="975" y="119" as="sourcePoint" />
            <mxPoint x="1286" y="119" as="targetPoint" />
            <Array as="points">
              <mxPoint x="1170" y="119" />
            </Array>
          </mxGeometry>
        </mxCell>
        <mxCell id="rnE-SV04y7jaSoK68JLr-68" value="학습자 이름 입력" style="html=1;verticalAlign=bottom;endArrow=block;rounded=0;fontFamily=Helvetica;fontSize=13;strokeWidth=1;fontStyle=1" parent="WIyWlLk6GJQsqaUBKTNV-1" edge="1">
          <mxGeometry width="80" relative="1" as="geometry">
            <mxPoint x="973.9976190476193" y="149" as="sourcePoint" />
            <mxPoint x="1287" y="149" as="targetPoint" />
            <Array as="points">
              <mxPoint x="1169.45" y="149" />
            </Array>
          </mxGeometry>
        </mxCell>
        <mxCell id="rnE-SV04y7jaSoK68JLr-71" value="모드 선택" style="html=1;verticalAlign=bottom;endArrow=block;rounded=0;fontFamily=Helvetica;fontSize=13;strokeWidth=1;fontStyle=1" parent="WIyWlLk6GJQsqaUBKTNV-1" edge="1">
          <mxGeometry width="80" relative="1" as="geometry">
            <mxPoint x="973.9976190476193" y="191" as="sourcePoint" />
            <mxPoint x="1287" y="191" as="targetPoint" />
            <Array as="points">
              <mxPoint x="1169.45" y="191" />
            </Array>
          </mxGeometry>
        </mxCell>
        <mxCell id="rnE-SV04y7jaSoK68JLr-73" value="학습자의 선택에 따른 모드 제공" style="html=1;verticalAlign=bottom;endArrow=open;dashed=1;endSize=8;rounded=0;fontFamily=Helvetica;fontSize=13;strokeWidth=1;fontStyle=1" parent="WIyWlLk6GJQsqaUBKTNV-1" edge="1">
          <mxGeometry relative="1" as="geometry">
            <mxPoint x="1286" y="250" as="sourcePoint" />
            <mxPoint x="975" y="250" as="targetPoint" />
          </mxGeometry>
        </mxCell>
        <mxCell id="rnE-SV04y7jaSoK68JLr-74" value="&lt;b&gt;데이터베이스&lt;/b&gt;" style="shape=umlLifeline;perimeter=lifelinePerimeter;whiteSpace=wrap;html=1;container=1;collapsible=0;recursiveResize=0;outlineConnect=0;fontFamily=Helvetica;fontSize=17;strokeColor=#000000;size=50;" parent="WIyWlLk6GJQsqaUBKTNV-1" vertex="1">
          <mxGeometry x="1442" y="50" width="110" height="750" as="geometry" />
        </mxCell>
        <mxCell id="rnE-SV04y7jaSoK68JLr-75" value="" style="html=1;points=[];perimeter=orthogonalPerimeter;fontFamily=Helvetica;fontSize=17;strokeColor=#000000;" parent="rnE-SV04y7jaSoK68JLr-74" vertex="1">
          <mxGeometry x="50" y="67" width="10" height="653" as="geometry" />
        </mxCell>
        <mxCell id="rnE-SV04y7jaSoK68JLr-79" value="평가 문제 전송" style="html=1;verticalAlign=bottom;endArrow=open;dashed=1;endSize=8;rounded=0;fontFamily=Helvetica;fontSize=13;strokeWidth=1;fontStyle=1" parent="rnE-SV04y7jaSoK68JLr-74" edge="1">
          <mxGeometry relative="1" as="geometry">
            <mxPoint x="48" y="400" as="sourcePoint" />
            <mxPoint x="-143" y="400" as="targetPoint" />
          </mxGeometry>
        </mxCell>
        <mxCell id="rnE-SV04y7jaSoK68JLr-91" value="포인트 저장" style="html=1;verticalAlign=bottom;endArrow=block;rounded=0;fontFamily=Helvetica;fontSize=13;strokeWidth=1;fontStyle=1" parent="rnE-SV04y7jaSoK68JLr-74" edge="1">
          <mxGeometry width="80" relative="1" as="geometry">
            <mxPoint x="-142" y="600" as="sourcePoint" />
            <mxPoint x="51" y="600" as="targetPoint" />
            <Array as="points">
              <mxPoint x="-66.54999999999995" y="600" />
            </Array>
          </mxGeometry>
        </mxCell>
        <mxCell id="rnE-SV04y7jaSoK68JLr-78" value="스토리 불러오기" style="html=1;verticalAlign=bottom;endArrow=block;rounded=0;fontFamily=Helvetica;fontSize=13;strokeWidth=1;fontStyle=1" parent="WIyWlLk6GJQsqaUBKTNV-1" edge="1">
          <mxGeometry width="80" relative="1" as="geometry">
            <mxPoint x="1299" y="281" as="sourcePoint" />
            <mxPoint x="1492" y="281" as="targetPoint" />
            <Array as="points">
              <mxPoint x="1374.45" y="281" />
            </Array>
          </mxGeometry>
        </mxCell>
        <mxCell id="rnE-SV04y7jaSoK68JLr-80" value="스토리 실행" style="html=1;verticalAlign=bottom;endArrow=open;dashed=1;endSize=8;rounded=0;fontFamily=Helvetica;fontSize=13;strokeWidth=1;fontStyle=1" parent="WIyWlLk6GJQsqaUBKTNV-1" edge="1">
          <mxGeometry relative="1" as="geometry">
            <mxPoint x="1285" y="360" as="sourcePoint" />
            <mxPoint x="974" y="360" as="targetPoint" />
          </mxGeometry>
        </mxCell>
        <mxCell id="rnE-SV04y7jaSoK68JLr-82" value="평가 문제 불러오기" style="html=1;verticalAlign=bottom;endArrow=block;rounded=0;fontFamily=Helvetica;fontSize=13;strokeWidth=1;fontStyle=1" parent="WIyWlLk6GJQsqaUBKTNV-1" edge="1">
          <mxGeometry width="80" relative="1" as="geometry">
            <mxPoint x="1299" y="410" as="sourcePoint" />
            <mxPoint x="1492" y="410" as="targetPoint" />
            <Array as="points">
              <mxPoint x="1374.45" y="410" />
            </Array>
          </mxGeometry>
        </mxCell>
        <mxCell id="rnE-SV04y7jaSoK68JLr-83" value="스토리 전송" style="html=1;verticalAlign=bottom;endArrow=open;dashed=1;endSize=8;rounded=0;fontFamily=Helvetica;fontSize=13;strokeWidth=1;fontStyle=1" parent="WIyWlLk6GJQsqaUBKTNV-1" edge="1">
          <mxGeometry relative="1" as="geometry">
            <mxPoint x="1490" y="330" as="sourcePoint" />
            <mxPoint x="1299" y="330" as="targetPoint" />
          </mxGeometry>
        </mxCell>
        <mxCell id="rnE-SV04y7jaSoK68JLr-84" value="평가 실행" style="html=1;verticalAlign=bottom;endArrow=open;dashed=1;endSize=8;rounded=0;fontFamily=Helvetica;fontSize=13;strokeWidth=1;fontStyle=1" parent="WIyWlLk6GJQsqaUBKTNV-1" edge="1">
          <mxGeometry relative="1" as="geometry">
            <mxPoint x="1286" y="478" as="sourcePoint" />
            <mxPoint x="975" y="478" as="targetPoint" />
          </mxGeometry>
        </mxCell>
        <mxCell id="rnE-SV04y7jaSoK68JLr-90" value="평가 결과 확인" style="html=1;verticalAlign=bottom;endArrow=open;dashed=1;endSize=8;rounded=0;fontFamily=Helvetica;fontSize=13;strokeWidth=1;fontStyle=1" parent="WIyWlLk6GJQsqaUBKTNV-1" edge="1">
          <mxGeometry relative="1" as="geometry">
            <mxPoint x="1284" y="619" as="sourcePoint" />
            <mxPoint x="973" y="619" as="targetPoint" />
          </mxGeometry>
        </mxCell>
        <mxCell id="rnE-SV04y7jaSoK68JLr-93" value="loop" style="shape=umlFrame;whiteSpace=wrap;html=1;fontFamily=Helvetica;fontSize=13;strokeColor=#000000;" parent="WIyWlLk6GJQsqaUBKTNV-1" vertex="1">
          <mxGeometry x="954" y="260" width="566" height="430" as="geometry" />
        </mxCell>
        <mxCell id="rnE-SV04y7jaSoK68JLr-94" value="[N &lt; 3]" style="text;align=center;fontStyle=1;verticalAlign=middle;spacingLeft=3;spacingRight=3;strokeColor=none;rotatable=0;points=[[0,0.5],[1,0.5]];portConstraint=eastwest;fontFamily=Helvetica;fontSize=15;" parent="WIyWlLk6GJQsqaUBKTNV-1" vertex="1">
          <mxGeometry x="967" y="291" width="80" height="26" as="geometry" />
        </mxCell>
        <mxCell id="rnE-SV04y7jaSoK68JLr-101" style="edgeStyle=orthogonalEdgeStyle;rounded=0;orthogonalLoop=1;jettySize=auto;html=1;entryX=0;entryY=0.5;entryDx=0;entryDy=0;fontFamily=Helvetica;fontSize=15;strokeWidth=1;" parent="WIyWlLk6GJQsqaUBKTNV-1" source="rnE-SV04y7jaSoK68JLr-95" target="rnE-SV04y7jaSoK68JLr-100" edge="1">
          <mxGeometry relative="1" as="geometry" />
        </mxCell>
        <mxCell id="rnE-SV04y7jaSoK68JLr-95" value="학습자" style="shape=umlActor;verticalLabelPosition=bottom;verticalAlign=top;html=1;fontFamily=Helvetica;fontSize=15;strokeColor=#000000;" parent="WIyWlLk6GJQsqaUBKTNV-1" vertex="1">
          <mxGeometry x="70" y="-860" width="30" height="60" as="geometry" />
        </mxCell>
        <mxCell id="rnE-SV04y7jaSoK68JLr-100" value="시스템 구동" style="ellipse;whiteSpace=wrap;html=1;fontFamily=Helvetica;fontSize=15;strokeColor=#000000;" parent="WIyWlLk6GJQsqaUBKTNV-1" vertex="1">
          <mxGeometry x="182" y="-865" width="117" height="70" as="geometry" />
        </mxCell>
        <mxCell id="rnE-SV04y7jaSoK68JLr-102" value="모드 선택" style="ellipse;whiteSpace=wrap;html=1;fontFamily=Helvetica;fontSize=15;strokeColor=#000000;" parent="WIyWlLk6GJQsqaUBKTNV-1" vertex="1">
          <mxGeometry x="299" y="-990" width="120" height="70" as="geometry" />
        </mxCell>
        <mxCell id="rnE-SV04y7jaSoK68JLr-109" value="" style="endArrow=classic;html=1;rounded=0;dashed=1;fontFamily=Helvetica;fontSize=15;strokeWidth=1;entryX=0;entryY=1;entryDx=0;entryDy=0;" parent="WIyWlLk6GJQsqaUBKTNV-1" source="rnE-SV04y7jaSoK68JLr-100" target="rnE-SV04y7jaSoK68JLr-102" edge="1">
          <mxGeometry relative="1" as="geometry">
            <mxPoint x="220" y="-870" as="sourcePoint" />
            <mxPoint x="320" y="-870" as="targetPoint" />
            <Array as="points" />
          </mxGeometry>
        </mxCell>
        <mxCell id="rnE-SV04y7jaSoK68JLr-110" value="&amp;lt;&amp;lt;include&amp;gt;&amp;gt;" style="edgeLabel;resizable=0;html=1;align=center;verticalAlign=middle;fontFamily=Helvetica;fontSize=15;strokeColor=#000000;fontStyle=1" parent="rnE-SV04y7jaSoK68JLr-109" connectable="0" vertex="1">
          <mxGeometry relative="1" as="geometry" />
        </mxCell>
        <mxCell id="rnE-SV04y7jaSoK68JLr-111" value="Multimode" style="ellipse;whiteSpace=wrap;html=1;fontFamily=Helvetica;fontSize=15;strokeColor=#000000;" parent="WIyWlLk6GJQsqaUBKTNV-1" vertex="1">
          <mxGeometry x="220" y="-1050" width="89" height="50" as="geometry" />
        </mxCell>
        <mxCell id="rnE-SV04y7jaSoK68JLr-112" value="Singlemode" style="ellipse;whiteSpace=wrap;html=1;fontFamily=Helvetica;fontSize=15;strokeColor=#000000;" parent="WIyWlLk6GJQsqaUBKTNV-1" vertex="1">
          <mxGeometry x="340" y="-1080" width="89" height="50" as="geometry" />
        </mxCell>
        <mxCell id="rnE-SV04y7jaSoK68JLr-113" value="" style="endArrow=block;dashed=1;endFill=0;endSize=12;html=1;rounded=0;fontFamily=Helvetica;fontSize=15;strokeWidth=1;entryX=0.06;entryY=0.303;entryDx=0;entryDy=0;entryPerimeter=0;" parent="WIyWlLk6GJQsqaUBKTNV-1" target="rnE-SV04y7jaSoK68JLr-102" edge="1">
          <mxGeometry width="160" relative="1" as="geometry">
            <mxPoint x="279" y="-1000" as="sourcePoint" />
            <mxPoint x="439" y="-1000" as="targetPoint" />
          </mxGeometry>
        </mxCell>
        <mxCell id="rnE-SV04y7jaSoK68JLr-116" value="" style="endArrow=block;dashed=1;endFill=0;endSize=12;html=1;rounded=0;fontFamily=Helvetica;fontSize=15;strokeWidth=1;exitX=0.5;exitY=1;exitDx=0;exitDy=0;" parent="WIyWlLk6GJQsqaUBKTNV-1" source="rnE-SV04y7jaSoK68JLr-112" target="rnE-SV04y7jaSoK68JLr-102" edge="1">
          <mxGeometry width="160" relative="1" as="geometry">
            <mxPoint x="361" y="-1031.18" as="sourcePoint" />
            <mxPoint x="521" y="-1031.18" as="targetPoint" />
          </mxGeometry>
        </mxCell>
        <mxCell id="rnE-SV04y7jaSoK68JLr-118" value="상황에 맞는 스토리를 진행" style="ellipse;whiteSpace=wrap;html=1;fontFamily=Helvetica;fontSize=15;strokeColor=#000000;" parent="WIyWlLk6GJQsqaUBKTNV-1" vertex="1">
          <mxGeometry x="329" y="-840" width="180" height="80" as="geometry" />
        </mxCell>
        <mxCell id="rnE-SV04y7jaSoK68JLr-120" value="" style="endArrow=classic;html=1;rounded=0;dashed=1;fontFamily=Helvetica;fontSize=15;strokeWidth=1;" parent="WIyWlLk6GJQsqaUBKTNV-1" edge="1">
          <mxGeometry relative="1" as="geometry">
            <mxPoint x="390.56471824187133" y="-923.6562912817149" as="sourcePoint" />
            <mxPoint x="410" y="-842" as="targetPoint" />
            <Array as="points" />
          </mxGeometry>
        </mxCell>
        <mxCell id="rnE-SV04y7jaSoK68JLr-121" value="&amp;lt;&amp;lt;include&amp;gt;&amp;gt;" style="edgeLabel;resizable=0;html=1;align=center;verticalAlign=middle;fontFamily=Helvetica;fontSize=15;strokeColor=#000000;fontStyle=1" parent="rnE-SV04y7jaSoK68JLr-120" connectable="0" vertex="1">
          <mxGeometry relative="1" as="geometry" />
        </mxCell>
        <mxCell id="rnE-SV04y7jaSoK68JLr-122" value="상황에 맞는 평가 문제 출력" style="ellipse;whiteSpace=wrap;html=1;fontFamily=Helvetica;fontSize=15;strokeColor=#000000;" parent="WIyWlLk6GJQsqaUBKTNV-1" vertex="1">
          <mxGeometry x="219" y="-720" width="190" height="70" as="geometry" />
        </mxCell>
        <mxCell id="rnE-SV04y7jaSoK68JLr-123" value="" style="endArrow=classic;html=1;rounded=0;dashed=1;fontFamily=Helvetica;fontSize=15;strokeWidth=1;entryX=0;entryY=1;entryDx=0;entryDy=0;exitX=0.5;exitY=0;exitDx=0;exitDy=0;" parent="WIyWlLk6GJQsqaUBKTNV-1" source="rnE-SV04y7jaSoK68JLr-122" edge="1">
          <mxGeometry relative="1" as="geometry">
            <mxPoint x="308.99751726441855" y="-701.3415463668057" as="sourcePoint" />
            <mxPoint x="360.50548023823626" y="-769.9991946452715" as="targetPoint" />
            <Array as="points" />
          </mxGeometry>
        </mxCell>
        <mxCell id="rnE-SV04y7jaSoK68JLr-124" value="&amp;lt;&amp;lt;extend&amp;gt;&amp;gt;" style="edgeLabel;resizable=0;html=1;align=center;verticalAlign=middle;fontFamily=Helvetica;fontSize=15;strokeColor=#000000;fontStyle=1" parent="rnE-SV04y7jaSoK68JLr-123" connectable="0" vertex="1">
          <mxGeometry relative="1" as="geometry" />
        </mxCell>
        <mxCell id="rnE-SV04y7jaSoK68JLr-125" value="피드백 제공" style="ellipse;whiteSpace=wrap;html=1;fontFamily=Helvetica;fontSize=15;strokeColor=#000000;" parent="WIyWlLk6GJQsqaUBKTNV-1" vertex="1">
          <mxGeometry x="203" y="-600" width="96" height="60" as="geometry" />
        </mxCell>
        <mxCell id="rnE-SV04y7jaSoK68JLr-126" value="" style="endArrow=classic;html=1;rounded=0;dashed=1;fontFamily=Helvetica;fontSize=15;strokeWidth=1;exitX=0;exitY=1;exitDx=0;exitDy=0;" parent="WIyWlLk6GJQsqaUBKTNV-1" source="rnE-SV04y7jaSoK68JLr-122" edge="1">
          <mxGeometry relative="1" as="geometry">
            <mxPoint x="269.56471824187133" y="-649.9962912817148" as="sourcePoint" />
            <mxPoint x="246" y="-600" as="targetPoint" />
            <Array as="points" />
          </mxGeometry>
        </mxCell>
        <mxCell id="rnE-SV04y7jaSoK68JLr-127" value="&amp;lt;&amp;lt;include&amp;gt;&amp;gt;" style="edgeLabel;resizable=0;html=1;align=center;verticalAlign=middle;fontFamily=Helvetica;fontSize=15;strokeColor=#000000;fontStyle=1" parent="rnE-SV04y7jaSoK68JLr-126" connectable="0" vertex="1">
          <mxGeometry relative="1" as="geometry" />
        </mxCell>
        <mxCell id="rnE-SV04y7jaSoK68JLr-128" value="포인트 제공" style="ellipse;whiteSpace=wrap;html=1;fontFamily=Helvetica;fontSize=15;strokeColor=#000000;" parent="WIyWlLk6GJQsqaUBKTNV-1" vertex="1">
          <mxGeometry x="336.5" y="-600" width="96" height="60" as="geometry" />
        </mxCell>
        <mxCell id="rnE-SV04y7jaSoK68JLr-129" value="" style="endArrow=classic;html=1;rounded=0;dashed=1;fontFamily=Helvetica;fontSize=15;strokeWidth=1;exitX=0;exitY=1;exitDx=0;exitDy=0;" parent="WIyWlLk6GJQsqaUBKTNV-1" edge="1">
          <mxGeometry relative="1" as="geometry">
            <mxPoint x="379.8872467032103" y="-660.4135442557126" as="sourcePoint" />
            <mxPoint x="379.5" y="-600" as="targetPoint" />
            <Array as="points" />
          </mxGeometry>
        </mxCell>
        <mxCell id="rnE-SV04y7jaSoK68JLr-130" value="&amp;lt;&amp;lt;include&amp;gt;&amp;gt;" style="edgeLabel;resizable=0;html=1;align=center;verticalAlign=middle;fontFamily=Helvetica;fontSize=15;strokeColor=#000000;fontStyle=1" parent="rnE-SV04y7jaSoK68JLr-129" connectable="0" vertex="1">
          <mxGeometry relative="1" as="geometry" />
        </mxCell>
      </root>
    </mxGraphModel>
  </diagram>
</mxfile>
